<?xml version="1.0" encoding="UTF-8" standalone="no"?>
<svg width="321.81244"
     height="58.186623"
     viewBox="0 0 85.146208 15.395211"
     version="1.1"
     xmlns="http://www.w3.org/2000/svg"
     xmlns:svg="http://www.w3.org/2000/svg">
   <g id="svg-ultrabold" style="fill:#a6a6ff" aria-label="Web Design">
      <path d="M 14.5,1.55 10.3,11.5 H 6.93 L 6.63,5.39 4.15,11.5 H 0.748 L 0.099,1.55 H 3.09 V 8.36 L 5.84,1.55 H 8.85 L 9.17,8.33 11.5,1.55 Z" />
      <path d="m 18.9,3.49 q 1.6,0 2.5,0.83 0.9,0.83 0.9,2.27 0,0.48 -0.1,0.85 -0.1,0.45 -0.1,0.65 h -5.3 q 0,0.1 0,0.25 0,0.54 0.3,0.79 0.2,0.26 0.7,0.26 0.7,0 1.1,-0.62 h 2.9 q -0.3,0.81 -1,1.43 -0.6,0.6 -1.5,1 -0.8,0.4 -1.8,0.4 -1.6,0 -2.5,-0.9 -0.9,-0.79 -0.9,-2.27 0,-0.43 0.1,-0.89 0.2,-1.24 0.9,-2.15 0.6,-0.91 1.6,-1.41 1,-0.49 2.2,-0.49 z m 0.6,3.36 q 0,-0.2 0,-0.26 0,-0.45 -0.3,-0.67 Q 19,5.68 18.5,5.68 18,5.68 17.6,5.97 17.2,6.27 17,6.85 Z"/>
      <path d="m 26.6,4.69 q 0.4,-0.55 1.1,-0.88 0.6,-0.32 1.4,-0.32 1.3,0 2,0.82 0.8,0.81 0.8,2.24 0,0.45 -0.1,0.99 -0.2,1.23 -0.8,2.16 -0.6,0.9 -1.5,1.4 -0.9,0.5 -1.8,0.5 -0.8,0 -1.4,-0.3 -0.5,-0.4 -0.7,-0.9 l -0.2,1.1 H 22.6 L 24.5,1.06 h 2.7 z M 29,7.54 Q 29,7.33 29,7.13 29,6.55 28.7,6.23 28.3,5.9 27.8,5.9 27.2,5.9 26.7,6.34 26.2,6.78 26.1,7.54 26,7.75 26,7.93 q 0,0.6 0.4,0.93 0.3,0.33 0.8,0.33 0.7,0 1.1,-0.44 Q 28.8,8.3 29,7.54 Z"/>
      <path d="m 40.8,1.55 q 1.3,0 2.3,0.5 1,0.48 1.5,1.37 0.6,0.89 0.6,2.07 0,0.54 -0.1,1.03 -0.3,1.44 -1.1,2.57 -0.9,1.11 -2.2,1.71 -1.2,0.7 -2.8,0.7 h -3.9 l 1.7,-9.95 z m -1.6,7.53 q 1.2,0 2,-0.67 0.8,-0.67 1.1,-1.89 0,-0.28 0,-0.6 0,-0.95 -0.6,-1.46 -0.5,-0.51 -1.6,-0.51 h -0.9 l -0.9,5.13 z"/>
      <path d="m 50.4,3.49 q 1.6,0 2.5,0.83 0.9,0.83 0.9,2.27 0,0.48 -0.1,0.85 -0.1,0.45 -0.1,0.65 h -5.3 q 0,0.1 0,0.25 0,0.54 0.3,0.79 0.2,0.26 0.7,0.26 0.7,0 1.1,-0.62 h 2.9 q -0.3,0.81 -1,1.43 -0.6,0.6 -1.5,1 -0.8,0.4 -1.8,0.4 -1.6,0 -2.5,-0.9 Q 45.6,9.91 45.6,8.43 45.6,8 45.7,7.54 45.9,6.3 46.6,5.39 47.2,4.48 48.2,3.98 49.2,3.49 50.4,3.49 Z M 51,6.85 Q 51,6.65 51,6.59 51,6.14 50.7,5.92 50.5,5.68 50,5.68 q -0.5,0 -0.9,0.29 -0.4,0.3 -0.6,0.88 z"/>
      <path d="m 57.6,11.6 q -1,0 -1.8,-0.3 Q 55,11 54.6,10.4 54.2,9.92 54.2,9.22 q 0,-0.13 0,-0.38 h 2.7 q -0.1,0.39 0.2,0.6 0.2,0.21 0.7,0.21 0.4,0 0.6,-0.14 0.2,-0.14 0.2,-0.36 0,-0.27 -0.3,-0.41 Q 58,8.58 57.3,8.36 56.5,8.1 56,7.86 55.5,7.62 55.1,7.16 54.7,6.69 54.7,5.96 q 0,-0.71 0.4,-1.27 0.4,-0.57 1.2,-0.88 0.8,-0.32 1.8,-0.32 1,0 1.8,0.36 0.8,0.36 1.2,0.99 0.4,0.64 0.3,1.41 H 59 Q 59,5.87 58.7,5.66 58.5,5.44 58,5.44 q -0.3,0 -0.5,0.14 -0.2,0.14 -0.2,0.36 0,0.27 0.3,0.43 0.3,0.15 1,0.39 0.8,0.26 1.3,0.51 0.6,0.24 0.9,0.69 0.4,0.44 0.4,1.13 0,1.21 -1,1.81 -1,0.7 -2.6,0.7 z"/>
      <path d="M 65.1,2.85 Q 64.4,2.85 64,2.53 63.7,2.2 63.7,1.7 63.7,1.24 63.9,0.86 64.2,0.465 64.6,0.239 65,0 65.6,0 66.2,0 66.6,0.338 67,0.663 67,1.18 67,1.64 66.7,2.02 66.5,2.4 66,2.63 65.6,2.85 65.1,2.85 Z m 1.2,0.74 -1.4,7.91 h -2.8 l 1.4,-7.91 z"/>
      <path d="m 70.8,3.49 q 0.8,0 1.4,0.32 0.5,0.33 0.7,0.88 l 0.2,-1.1 h 2.8 l -1.4,7.81 q -0.2,1.1 -0.8,2 -0.5,0.9 -1.5,1.4 -1,0.6 -2.4,0.6 -1.7,0 -2.7,-0.8 -0.9,-0.8 -0.9,-2.2 v -0.2 h 2.7 q 0,0.3 0.3,0.5 0.3,0.3 0.9,0.3 1.4,0 1.6,-1.6 l 0.2,-1 q -0.4,0.5 -1,0.8 -0.7,0.4 -1.5,0.4 -1.2,0 -2,-0.9 Q 66.6,9.95 66.6,8.53 66.6,8.06 66.7,7.54 67,6.31 67.6,5.39 68.2,4.48 69,3.98 69.9,3.49 70.8,3.49 Z m 1.6,4.05 q 0.1,-0.21 0.1,-0.4 0,-0.59 -0.4,-0.91 -0.3,-0.33 -0.8,-0.33 -0.6,0 -1.1,0.44 -0.5,0.42 -0.6,1.2 -0.1,0.21 -0.1,0.41 0,0.59 0.3,0.91 0.4,0.33 0.9,0.33 0.6,0 1.1,-0.44 0.5,-0.44 0.6,-1.21 z"/>
      <path d="m 82.7,3.52 q 1.1,0 1.8,0.67 0.6,0.67 0.6,1.85 0,0.4 0,0.85 L 84.2,11.5 H 81.5 L 82.2,7.26 Q 82.3,7.04 82.3,6.87 82.3,6.37 82,6.08 81.7,5.8 81.2,5.8 q -0.6,0 -1,0.37 -0.4,0.37 -0.6,1.02 l -0.7,4.31 h -2.8 l 1.4,-7.91 h 2.7 l -0.1,1.13 q 0.4,-0.54 1.1,-0.87 0.7,-0.33 1.5,-0.33 z"/>
   </g>
   <g id="svg-semibold" style="fill:#ff3a3a">
      <path d="M 13.8,1.65 9.33,11.5 H 7 L 6.39,4.49 3.23,11.5 H 0.917 L 0,1.65 H 2.12 L 2.51,9.3 5.86,1.65 h 2.2 L 8.59,9.26 11.7,1.65 Z"/>
      <path d="m 18.2,3.56 q 1.5,0 2.4,0.83 0.8,0.82 0.8,2.22 0,0.45 0,0.8 -0.1,0.42 -0.2,0.73 h -5.7 q 0,0.1 0,0.29 0,0.73 0.4,1.15 0.4,0.41 1.1,0.41 0.6,0 1,-0.25 0.5,-0.27 0.7,-0.69 h 2.2 q -0.6,1.15 -1.7,1.85 -1,0.7 -2.4,0.7 -1.5,0 -2.4,-0.9 -0.9,-0.76 -0.9,-2.22 0,-0.42 0.1,-0.89 0.2,-1.21 0.8,-2.13 0.7,-0.91 1.7,-1.41 0.9,-0.49 2.1,-0.49 z m 1.2,3.39 q 0,-0.23 0,-0.33 0,-0.68 -0.4,-1.06 -0.4,-0.38 -1.1,-0.38 -0.8,0 -1.4,0.48 -0.6,0.47 -0.8,1.29 z"/>
      <path d="m 25.2,4.83 q 0.5,-0.57 1.2,-0.92 0.8,-0.35 1.6,-0.35 0.9,0 1.6,0.38 0.7,0.37 1,1.07 0.4,0.71 0.4,1.65 0,0.44 -0.1,0.91 -0.2,1.2 -0.8,2.13 -0.7,0.9 -1.6,1.4 -0.9,0.5 -1.9,0.5 -0.8,0 -1.5,-0.3 -0.6,-0.4 -0.8,-0.9 l -0.2,1.1 h -2 L 23.9,1.06 h 2 z m 3.7,2.74 q 0,-0.29 0,-0.51 0,-0.83 -0.5,-1.3 -0.4,-0.47 -1.2,-0.47 -0.5,0 -1,0.29 -0.6,0.26 -0.9,0.79 -0.4,0.52 -0.5,1.22 -0.1,0.37 -0.1,0.54 0,0.83 0.5,1.3 0.5,0.46 1.2,0.46 0.6,0 1.1,-0.28 0.5,-0.28 0.9,-0.8 0.4,-0.52 0.5,-1.24 z"/>
      <path d="m 40.6,1.65 q 1.4,0 2.4,0.48 1,0.47 1.5,1.34 0.5,0.88 0.5,2.08 0,0.53 -0.1,1.04 -0.2,1.48 -1.1,2.6 -0.8,1.11 -2.1,1.71 -1.3,0.6 -2.8,0.6 h -3.5 l 1.8,-9.85 z m -1.5,8.24 q 1.5,0 2.5,-0.87 1,-0.88 1.3,-2.43 Q 43,6.13 43,5.79 43,4.6 42.3,3.95 41.6,3.3 40.2,3.3 h -1.3 l -1.2,6.59 z"/>
      <path d="m 50.4,3.56 q 1.5,0 2.3,0.83 0.9,0.82 0.9,2.22 0,0.45 -0.1,0.8 0,0.42 -0.1,0.73 h -5.8 q 0,0.1 0,0.29 0,0.73 0.4,1.15 0.5,0.41 1.2,0.41 0.6,0 1,-0.25 0.4,-0.27 0.7,-0.69 H 53 q -0.5,1.15 -1.6,1.85 -1.1,0.7 -2.4,0.7 -1.5,0 -2.4,-0.9 -1,-0.76 -1,-2.22 0,-0.42 0.1,-0.89 0.2,-1.21 0.9,-2.13 0.7,-0.91 1.6,-1.41 1,-0.49 2.2,-0.49 z m 1.2,3.39 q 0,-0.23 0,-0.33 0,-0.68 -0.4,-1.06 -0.5,-0.38 -1.2,-0.38 -0.7,0 -1.3,0.48 -0.6,0.47 -0.8,1.29 z"/>
      <path d="m 57.3,11.6 q -0.9,0 -1.6,-0.3 Q 55,11 54.6,10.5 54.2,10 54.2,9.36 q 0,-0.1 0.1,-0.33 h 1.9 q -0.1,0.5 0.3,0.81 0.3,0.26 0.9,0.26 0.6,0 1,-0.16 0.4,-0.21 0.4,-0.61 0,-0.35 -0.4,-0.56 Q 58.1,8.55 57.3,8.29 56.6,8.02 56.1,7.76 55.6,7.51 55.2,7.06 54.9,6.61 54.9,5.92 q 0,-0.7 0.4,-1.23 0.4,-0.54 1.1,-0.84 0.7,-0.29 1.7,-0.29 0.8,0 1.5,0.29 0.7,0.3 1.1,0.84 0.3,0.52 0.3,1.2 0,0.17 0,0.25 h -1.8 q 0,-0.49 -0.3,-0.79 -0.3,-0.3 -0.9,-0.3 -0.5,0 -0.9,0.23 -0.3,0.21 -0.3,0.58 0,0.37 0.4,0.61 0.3,0.22 1.1,0.5 0.8,0.3 1.2,0.55 0.5,0.24 0.8,0.68 0.4,0.42 0.4,1.07 0,0.72 -0.5,1.23 -0.4,0.5 -1.2,0.8 -0.7,0.3 -1.7,0.3 z"/>
      <path d="m 64.5,2.75 q -0.5,0 -0.8,-0.26 -0.2,-0.27 -0.2,-0.68 0,-0.57 0.4,-0.964 0.4,-0.409 1,-0.409 0.4,0 0.7,0.268 0.3,0.268 0.3,0.675 0,0.57 -0.4,0.98 -0.4,0.39 -1,0.39 z m 0.8,0.94 -1.4,7.81 h -2 l 1.4,-7.81 z"/>
      <path d="m 70.3,3.56 q 0.9,0 1.5,0.35 0.6,0.34 0.9,0.89 l 0.2,-1.11 h 2 l -1.4,7.81 q -0.2,1.1 -0.8,2 -0.6,0.8 -1.6,1.3 -0.9,0.5 -2.2,0.5 -1.6,0 -2.5,-0.8 -1,-0.7 -0.9,-2.1 h 2 q 0,0.6 0.5,0.9 0.5,0.3 1.2,0.3 0.9,0 1.5,-0.5 0.6,-0.5 0.8,-1.6 l 0.2,-1.2 q -0.5,0.6 -1.2,0.9 -0.7,0.4 -1.6,0.4 -0.8,0 -1.5,-0.4 Q 66.7,10.8 66.3,10.1 66,9.43 66,8.48 66,8.05 66.1,7.57 66.3,6.38 66.9,5.46 67.5,4.55 68.4,4.05 69.3,3.56 70.3,3.56 Z m 1.9,4.03 q 0,-0.36 0,-0.53 0,-0.83 -0.4,-1.3 -0.5,-0.47 -1.3,-0.47 -0.5,0 -1,0.27 Q 69,5.83 68.6,6.35 68.2,6.86 68.1,7.57 68,7.83 68,8.07 q 0,0.85 0.5,1.34 0.5,0.48 1.2,0.48 0.6,0 1.1,-0.26 0.5,-0.29 0.9,-0.81 0.4,-0.52 0.5,-1.23 z"/>
      <path d="m 81.2,3.57 q 1.2,0 1.9,0.67 0.7,0.64 0.7,1.86 0,0.45 -0.1,0.82 l -0.8,4.58 h -2 l 0.8,-4.31 q 0,-0.26 0,-0.5 0,-0.7 -0.4,-1.07 -0.3,-0.37 -1,-0.37 -0.8,0 -1.4,0.48 -0.5,0.47 -0.7,1.36 l -0.8,4.41 h -2 l 1.4,-7.81 h 2 l -0.2,0.96 q 0.5,-0.5 1.2,-0.78 0.6,-0.3 1.4,-0.3 z"/>
   </g>
   <g id="svg-normal">
      <path d="M 13.1,1.67 8.55,11.5 H 7.11 L 6.22,3.59 2.47,11.5 H 1.03 L 0.014,1.67 H 1.4 L 2.07,9.98 5.9,1.67 H 7.35 L 8.14,9.95 11.8,1.67 Z"/>
      <path d="m 17.5,3.64 q 1,0 1.7,0.38 0.7,0.37 1.1,1.05 0.4,0.66 0.4,1.52 0,0.3 -0.1,0.72 0,0.37 -0.2,0.76 h -6.1 q -0.1,0.29 -0.1,0.41 0,0.98 0.6,1.52 0.6,0.5 1.5,0.5 0.9,0 1.5,-0.3 0.6,-0.43 1,-1.08 h 1.3 q -0.5,1.08 -1.5,1.78 -1.1,0.7 -2.5,0.7 -1.4,0 -2.3,-0.8 -0.9,-0.85 -0.9,-2.3 0,-0.41 0.1,-0.88 0.2,-1.2 0.9,-2.1 0.6,-0.9 1.6,-1.38 0.9,-0.5 2,-0.5 z m 1.8,3.5 q 0.1,-0.28 0.1,-0.52 0,-0.9 -0.6,-1.4 -0.6,-0.49 -1.5,-0.49 -1,0 -1.8,0.65 -0.8,0.63 -1.1,1.76 z"/>
      <path d="m 24,5.21 q 0.5,-0.69 1.3,-1.13 0.8,-0.44 1.8,-0.44 1.4,0 2.2,0.84 0.9,0.83 0.9,2.25 0,0.41 -0.1,0.88 -0.2,1.17 -0.9,2.09 -0.6,0.9 -1.5,1.4 -0.9,0.5 -2,0.5 -1,0 -1.7,-0.4 -0.6,-0.5 -0.9,-1.1 l -0.3,1.4 H 21.6 L 23.4,1.06 h 1.3 z m 4.8,2.4 q 0,-0.3 0,-0.65 0,-1.03 -0.6,-1.61 -0.6,-0.59 -1.5,-0.59 -0.7,0 -1.4,0.35 -0.7,0.34 -1.1,1 -0.5,0.65 -0.7,1.51 0,0.3 0,0.65 0,1.03 0.6,1.64 0.6,0.59 1.6,0.59 0.7,0 1.3,-0.3 0.7,-0.39 1.2,-1.04 0.4,-0.66 0.6,-1.55 z"/>
      <path d="m 40.1,1.67 q 2.1,0 3.3,1.01 1.1,1.02 1.1,2.83 0,0.56 -0.1,1.1 -0.2,1.51 -1.1,2.62 -0.8,1.07 -2.1,1.67 -1.2,0.6 -2.8,0.6 h -3.1 l 1.8,-9.83 z m -1.5,8.83 q 1.8,0 3,-1.01 1.2,-1.05 1.5,-2.88 0.1,-0.51 0.1,-0.96 0,-1.4 -0.8,-2.16 -0.8,-0.78 -2.5,-0.78 h -1.7 l -1.4,7.79 z"/>
      <path d="m 50,3.64 q 1,0 1.7,0.38 0.7,0.37 1.1,1.05 0.4,0.66 0.4,1.52 0,0.3 -0.1,0.72 -0.1,0.37 -0.2,0.76 h -6.2 q 0,0.29 0,0.41 0,0.98 0.6,1.52 0.6,0.5 1.5,0.5 0.8,0 1.5,-0.3 0.6,-0.43 0.9,-1.08 h 1.4 q -0.5,1.08 -1.6,1.78 -1,0.7 -2.4,0.7 -1.4,0 -2.3,-0.8 -0.9,-0.85 -0.9,-2.3 0,-0.41 0.1,-0.88 0.2,-1.2 0.8,-2.1 0.7,-0.9 1.6,-1.38 1,-0.5 2.1,-0.5 z m 1.8,3.5 q 0,-0.28 0,-0.52 0,-0.9 -0.5,-1.4 -0.6,-0.49 -1.5,-0.49 -1,0 -1.8,0.65 -0.8,0.63 -1.1,1.76 z"/>
      <path d="m 56.8,11.6 q -1.3,0 -2,-0.6 Q 54,10.4 54,9.5 54,9.32 54,9.23 h 1.3 q -0.1,0.61 0.3,0.97 0.4,0.4 1.2,0.4 0.8,0 1.3,-0.3 0.5,-0.31 0.5,-0.86 0,-0.46 -0.4,-0.73 Q 57.8,8.44 57,8.13 56.3,7.86 55.8,7.62 55.3,7.38 55,6.96 54.7,6.52 54.7,5.86 54.7,5.21 55,4.7 q 0.4,-0.51 1.1,-0.77 0.7,-0.29 1.5,-0.29 1.2,0 2,0.6 0.7,0.59 0.7,1.55 0,0.18 0,0.28 H 59.1 V 5.9 q 0,-0.56 -0.4,-0.89 -0.4,-0.34 -1.2,-0.34 -0.6,0 -1.1,0.31 -0.4,0.31 -0.4,0.84 0,0.49 0.4,0.77 0.4,0.28 1.2,0.62 0.8,0.29 1.2,0.53 0.4,0.22 0.7,0.63 0.4,0.41 0.4,1.03 0,0.7 -0.5,1.1 -0.3,0.6 -1.1,0.8 -0.7,0.3 -1.5,0.3 z"/>
      <path d="m 63.6,2.51 q -0.3,0 -0.5,-0.19 -0.2,-0.21 -0.2,-0.53 0,-0.42 0.3,-0.72 0.3,-0.308 0.8,-0.308 0.3,0 0.5,0.197 0.2,0.201 0.2,0.521 0,0.43 -0.3,0.74 -0.3,0.29 -0.8,0.29 z m 0.5,1.26 -1.4,7.73 h -1.3 l 1.4,-7.73 z"/>
      <path d="m 69.5,3.64 q 1,0 1.6,0.44 0.7,0.44 1,1.1 l 0.2,-1.41 h 1.3 l -1.4,7.83 q -0.2,1.1 -0.8,1.9 -0.6,0.8 -1.5,1.3 -0.9,0.5 -2,0.5 -1.5,0 -2.4,-0.8 -0.9,-0.7 -0.9,-1.9 h 1.3 q 0.1,0.7 0.6,1.1 0.6,0.5 1.6,0.5 1,0 1.8,-0.7 0.8,-0.7 1,-1.9 L 71.2,10 q -0.5,0.7 -1.3,1.1 -0.9,0.5 -1.9,0.5 -0.9,0 -1.6,-0.4 -0.6,-0.4 -1,-1.1 Q 65,9.41 65,8.47 q 0,-0.42 0.1,-0.86 0.2,-1.19 0.8,-2.08 0.7,-0.9 1.6,-1.39 0.9,-0.5 2,-0.5 z m 2.1,3.98 q 0.1,-0.29 0.1,-0.63 0,-1.03 -0.6,-1.63 -0.6,-0.6 -1.6,-0.6 -0.7,0 -1.4,0.34 -0.6,0.34 -1.1,0.98 -0.5,0.65 -0.6,1.53 -0.1,0.29 -0.1,0.65 0,1.04 0.6,1.65 0.6,0.59 1.6,0.59 0.7,0 1.4,-0.3 Q 70.5,9.81 71,9.16 71.5,8.5 71.6,7.62 Z"/>
      <path d="m 79.6,3.63 q 1.2,0 1.9,0.65 0.7,0.63 0.7,1.86 0,0.45 -0.1,0.81 L 81.3,11.5 H 80.1 L 80.8,7.13 Q 80.9,6.83 80.9,6.51 80.9,5.65 80.4,5.2 80,4.74 79.1,4.74 q -1,0 -1.7,0.64 -0.7,0.63 -0.9,1.85 v 0 l -0.8,4.27 h -1.3 l 1.4,-7.7 h 1.3 l -0.2,1.11 q 0.4,-0.6 1.2,-0.93 0.7,-0.32 1.5,-0.32 z"/>
   </g>
</svg>
