<svg width="24" height="24" viewBox="0 0 24 24" xmlns="http://www.w3.org/2000/svg">
  <style>
    @media (prefers-color-scheme: dark) { #iconpath { fill: white } }
  </style>
  <g id="iconpath" style="fill:black" aria-label="LS">
     <path d="M 0.308665,20.6117 V 3.15076 H 2.41804 V 18.7367 h 8.41406 v 1.875 z" id="text3" />
     <path d="m 17.5466,20.893 q -2.0156,0 -3.4922,-0.7149 -1.4765,-0.7266 -2.2851,-2.0508 -0.8086,-1.3242 -0.8086,-3.1406 h 2.1562 q 0,1.875 1.1602,2.9297 1.1718,1.0547 3.2695,1.0547 1.9102,0 3.0586,-0.8321 1.1602,-0.832 1.1602,-2.2382 0,-1.0899 -0.7852,-1.7696 -0.7852,-0.6797 -2.6719,-1.1484 l -1.957,-0.4805 q -2.6719,-0.6562 -3.8555,-1.7578 -1.1836,-1.10155 -1.1836,-2.8828 0,-1.51172 0.7383,-2.625 0.75,-1.125 2.1094,-1.74609 1.3594,-0.6211 3.1758,-0.6211 2.7304,0 4.3476,1.46485 1.6289,1.45312 1.6992,3.97265 h -2.0859 q -0.094,-1.64062 -1.1719,-2.5664 -1.0781,-0.9375 -2.8593,-0.9375 -1.6993,0 -2.7891,0.83203 -1.0781,0.82031 -1.0781,2.12109 0,1.01953 0.7968,1.66406 0.8086,0.63281 2.7071,1.11331 l 1.9804,0.4922 q 2.5547,0.6328 3.7735,1.7929 1.2187,1.1602 1.2187,2.9883 0,1.5117 -0.7968,2.6602 -0.7852,1.1484 -2.2149,1.7929 -1.418,0.6329 -3.3164,0.6329 z" />
  </g>
</svg>